<svg width="50" height="423" viewBox="0 0 50 423" fill="none" xmlns="http://www.w3.org/2000/svg">
<line x1="25.5" x2="25.5" y2="390" stroke="white" stroke-dasharray="12 12"/>
<path d="M21.3281 388.666L20.9658 388.083C20.6757 387.616 20.0616 387.472 19.5941 387.762C19.1268 388.053 18.9833 388.667 19.2737 389.134L19.636 389.717C19.8247 390.021 20.1499 390.188 20.4831 390.188C20.6624 390.188 20.8441 390.139 21.0078 390.038C21.475 389.747 21.6183 389.133 21.3281 388.666Z" fill="white"/>
<path d="M47.0492 410.126L43.3267 404.134C41.0564 400.479 36.4258 399.167 32.6186 400.938L30.5604 397.625L38.5347 384.788C40.9935 380.83 39.7736 375.609 35.8153 373.15C35.591 373.011 35.3205 372.966 35.0631 373.026C34.8058 373.086 34.5831 373.246 34.4437 373.47L24.9997 388.673L15.5558 373.47C15.4165 373.246 15.1936 373.086 14.9364 373.026C14.6792 372.966 14.4085 373.011 14.1842 373.15C10.226 375.609 9.00606 380.83 11.4648 384.788L19.4392 397.625L17.381 400.938C13.5738 399.167 8.94307 400.479 6.67286 404.134L2.95042 410.126C0.498082 414.074 1.71468 419.281 5.66251 421.733C7.04356 422.591 8.57872 423 10.0962 423C12.9163 423 15.6752 421.588 17.2695 419.021L24.9137 406.715L24.9998 406.576L25.086 406.715L32.7302 419.021C34.3247 421.588 37.0831 423 39.9035 423C41.4207 423 42.9562 422.591 44.3372 421.733C48.2849 419.281 49.5015 414.074 47.0492 410.126ZM13.1571 383.737C12.1016 382.037 11.9338 380.034 12.525 378.271L17.4714 386.234C17.66 386.537 17.9853 386.704 18.3184 386.704C18.4978 386.704 18.6794 386.656 18.843 386.554C19.3103 386.264 19.454 385.65 19.1635 385.182L13.6235 376.264C13.8639 375.967 14.1329 375.688 14.4297 375.433L23.8271 390.561L20.6117 395.737L13.1571 383.737ZM15.5772 417.97C14.3596 419.93 12.253 421.008 10.0993 421.008C8.94073 421.008 7.76807 420.696 6.71359 420.041C3.69895 418.168 2.76995 414.192 4.6426 411.177L8.36504 405.185C10.2378 402.17 14.2139 401.241 17.2286 403.114L22.6958 406.51L15.5772 417.97ZM23.7469 404.818L19.1068 401.935L35.5698 375.433C35.8666 375.688 36.1357 375.967 36.376 376.264L32.6434 382.273C32.353 382.74 32.4966 383.354 32.9639 383.645C33.1275 383.746 33.3091 383.795 33.4885 383.795C33.8216 383.795 34.1469 383.628 34.3355 383.324L37.4746 378.271C38.0659 380.034 37.898 382.037 36.8425 383.737L23.7469 404.818ZM26.2526 404.818L26.1724 404.689L29.3878 399.512L30.8927 401.935L27.1308 404.272L26.2526 404.818ZM43.286 420.041C40.2711 421.914 36.2949 420.984 34.4224 417.97L27.3038 406.51L32.7711 403.114C35.7858 401.241 39.762 402.17 41.6346 405.185L45.3571 411.177C47.2296 414.192 46.3005 418.168 43.286 420.041Z" fill="white"/>
<path d="M43.4265 411.8L40.2211 406.64C39.5914 405.626 38.6046 404.918 37.4426 404.647C36.2806 404.375 35.0823 404.572 34.0686 405.202C31.9759 406.502 31.3311 409.262 32.631 411.355L35.8364 416.515C36.6817 417.875 38.1439 418.624 39.6389 418.624C40.4431 418.624 41.257 418.407 41.989 417.952C44.0815 416.653 44.7263 413.892 43.4265 411.8ZM40.9377 416.26C39.7781 416.98 38.249 416.623 37.5284 415.463L34.323 410.303C33.6028 409.144 33.96 407.614 35.1195 406.894C35.5167 406.647 35.965 406.521 36.4211 406.521C36.6101 406.521 36.8005 406.542 36.9891 406.586C37.6329 406.737 38.1797 407.129 38.5286 407.691L41.7342 412.851C42.4545 414.011 42.0973 415.54 40.9377 416.26Z" fill="white"/>
<path d="M15.9314 405.202C14.9178 404.573 13.7196 404.375 12.5573 404.647C11.3953 404.918 10.4086 405.626 9.77894 406.64L6.57339 411.8C5.27339 413.892 5.91841 416.652 8.01098 417.952C8.74311 418.407 9.55677 418.624 10.3611 418.624C11.856 418.624 13.3183 417.875 14.1635 416.515L17.3689 411.355C18.6689 409.262 18.0239 406.502 15.9314 405.202ZM15.6768 410.303L12.4713 415.464C11.7509 416.623 10.2216 416.98 9.06205 416.26C7.90248 415.54 7.54526 414.011 8.26547 412.851L11.471 407.691C11.8199 407.129 12.3667 406.737 13.0106 406.587C13.1993 406.543 13.3896 406.521 13.5785 406.521C14.0347 406.521 14.4829 406.648 14.8801 406.894C16.0397 407.615 16.397 409.144 15.6768 410.303Z" fill="white"/>
<path d="M25.1265 396.173C24.5765 396.173 24.1304 396.619 24.1304 397.169V398.059C24.1304 398.609 24.5765 399.055 25.1265 399.055C25.6765 399.055 26.1226 398.609 26.1226 398.059V397.169C26.1226 396.619 25.6765 396.173 25.1265 396.173Z" fill="white"/>
</svg>
